<svg width="28" height="28" viewBox="0 0 28 28" fill="none" xmlns="http://www.w3.org/2000/svg">
<path d="M17.7124 6.98749C11.6896 5.04405 6.26806 8.51243 2.97708 12.1182C1.95454 13.2385 1.98493 14.9428 2.99949 16.0704C3.9713 17.1504 4.94652 18.0472 5.91867 18.7813L9.18519 15.5147L15.5163 9.18365L17.7124 6.98749Z" fill="#B7B7B7"/>
<path d="M10.4315 17.5683C11.345 18.4823 12.6073 19.0476 14.0016 19.0476C16.7893 19.0476 19.0492 16.7877 19.0492 14C19.0492 12.6057 18.4838 11.3434 17.5699 10.4299L20.0112 7.98854C21.6429 8.88761 23.3033 10.2143 24.964 12.0672C25.9972 13.2201 26.0073 14.965 24.934 16.0808C21.1544 20.0096 14.7271 23.7357 7.92465 20.0751L10.4315 17.5683Z" fill="#B7B7B7"/>
<path d="M14.1946 10.5053C14.1302 10.5018 14.0653 10.5 14 10.5C12.067 10.5 10.5 12.067 10.5 14C10.5 14.0653 10.5018 14.1302 10.5053 14.1946L14.1946 10.5053Z" fill="#B7B7B7"/>
<path d="M11.525 16.4748C12.1584 17.1082 13.0334 17.5 14 17.5C15.933 17.5 17.5 15.933 17.5 14C17.5 13.0334 17.1082 12.1584 16.4748 11.525L11.525 16.4748Z" fill="#B7B7B7"/>
<path fill-rule="evenodd" clip-rule="evenodd" d="M22.6742 6.17504C23.1298 6.63065 23.1298 7.36935 22.6742 7.82496L7.82497 22.6742C7.36936 23.1298 6.63066 23.1298 6.17505 22.6742C5.71944 22.2186 5.71944 21.4799 6.17505 21.0243L21.0243 6.17504C21.4799 5.71943 22.2186 5.71943 22.6742 6.17504Z" fill="#B7B7B7"/>
</svg>
