<svg width="150" height="19" viewBox="0 0 150 19" fill="none" xmlns="http://www.w3.org/2000/svg">
<path d="M8.10547 12.5273C6.28906 12.5273 4.90234 11.1016 4.90234 8.52344C4.90234 5.90625 6.34766 4.53906 8.10547 4.53906C9.375 4.53906 10 5.30078 10.2539 5.84766H10.3516V4.71484H12.2461V9.92969C12.2656 10.5938 12.5391 10.9062 13.0664 10.9062C14.0625 10.9062 14.707 9.75391 14.707 8.01562C14.7266 4.61719 12.3242 2.39062 8.76953 2.39062C5.13672 2.39062 2.8125 5.02734 2.8125 8.52344C2.8125 12.3125 4.84375 14.6953 8.71094 14.6758C10.0977 14.6758 11.1328 14.5586 12.2461 14.2656V16.0625C11.2109 16.3555 10 16.5312 8.71094 16.5312C3.80859 16.5312 0.957031 13.4062 0.957031 8.52344C0.9375 3.89453 4.17969 0.535156 8.76953 0.535156C13.3789 0.535156 16.582 3.67969 16.582 7.95703C16.582 10.9258 15.0781 12.625 12.8906 12.625C11.5918 12.625 10.6152 12 10.4297 11.1211H10.332C10.0781 11.668 9.43359 12.5273 8.10547 12.5273ZM8.69141 10.7305C9.80469 10.75 10.3906 9.87109 10.3906 8.52344C10.3906 7.17578 9.80469 6.31641 8.69141 6.31641C7.61719 6.31641 7.01172 7.23438 7.03125 8.52344C7.01172 9.8125 7.63672 10.7305 8.69141 10.7305ZM24.7266 6.92188C24.5703 6.12109 23.9062 5.61328 22.8516 5.61328C21.7773 5.61328 20.9961 6.14062 21.0156 6.86328C20.9961 7.41016 21.4453 7.82031 22.5195 8.07422L24.3164 8.44531C26.3281 8.89453 27.2852 9.8125 27.3047 11.3359C27.2852 13.3281 25.5469 14.7148 22.7734 14.7148C20.0781 14.7148 18.4766 13.5039 18.2227 11.4727H20.7617C20.918 12.3711 21.6211 12.8203 22.7734 12.8203C23.9648 12.8203 24.7656 12.332 24.7656 11.5508C24.7656 10.9453 24.2773 10.5547 23.2227 10.3203L21.5234 9.94922C19.5508 9.55859 18.5352 8.52344 18.5352 7C18.5352 5.04688 20.2148 3.75781 22.8125 3.75781C25.3516 3.75781 26.9141 4.98828 27.0898 6.92188H24.7266ZM28.7109 11.5117C28.7109 9.12891 30.6836 8.42578 32.6562 8.30859C33.3887 8.25977 34.9121 8.17188 35.3711 8.15234V7.3125C35.3711 6.25781 34.6875 5.65234 33.457 5.65234C32.3438 5.65234 31.6602 6.16016 31.4648 6.92188H29.0625C29.2383 5.125 30.8594 3.75781 33.5156 3.75781C35.5273 3.75781 37.8516 4.57812 37.8516 7.41016V14.5H35.4688V13.0352H35.3906C34.9219 13.9336 33.9258 14.7148 32.2656 14.7148C30.2344 14.7148 28.7109 13.6016 28.7109 11.5117ZM31.1133 11.4922C31.1133 12.4102 31.8555 12.8789 32.9102 12.8789C34.4141 12.8789 35.3906 11.8828 35.3906 10.6914V9.8125L33.0469 9.96875C31.8555 10.0664 31.1133 10.5547 31.1133 11.4922ZM42.6953 8.28906V14.5H40.1953V3.89453H42.5781V5.69141H42.7148C43.2031 4.5 44.2773 3.75781 45.8594 3.75781C48.0664 3.75781 49.5117 5.20312 49.4922 7.74219V14.5H47.0117V8.13281C47.0117 6.70703 46.25 5.86719 44.9414 5.86719C43.6133 5.86719 42.6953 6.74609 42.6953 8.28906ZM56.5039 18.6992C53.6914 18.6992 51.9141 17.4492 51.7383 15.457H54.2188C54.3945 16.375 55.2734 16.8242 56.543 16.8242C58.0273 16.8242 59.0039 16.1797 59.0039 14.6172V12.5859H58.8867C58.4961 13.3672 57.6562 14.3438 55.8203 14.3438C53.3789 14.3438 51.4453 12.5664 51.4453 9.10938C51.4453 5.61328 53.3789 3.75781 55.8398 3.75781C57.7148 3.75781 58.4961 4.87109 58.8867 5.63281H59.0039V3.89453H61.4648V14.6758C61.4648 17.3906 59.375 18.6992 56.5039 18.6992ZM56.5039 12.3906C58.1055 12.3906 59.0234 11.1797 59.0234 9.14844C59.0234 7.13672 58.125 5.78906 56.5039 5.78906C54.8438 5.78906 53.9844 7.21484 53.9844 9.14844C53.9844 11.1016 54.8633 12.3906 56.5039 12.3906ZM63.8477 14.5V3.89453H66.2305V5.69141H66.3672C66.7969 4.48047 67.8711 3.75781 69.2773 3.75781C70.7227 3.75781 71.7383 4.48047 72.1484 5.69141H72.2656C72.7344 4.51953 73.9062 3.75781 75.4492 3.75781C77.3828 3.75781 78.75 5.00781 78.75 7.37109V14.5H76.2695V7.76172C76.2695 6.43359 75.4688 5.84766 74.4531 5.84766C73.2227 5.84766 72.5195 6.6875 72.5195 7.87891V14.5H70.0977V7.66406C70.0977 6.57031 69.3555 5.84766 68.3008 5.84766C67.2266 5.84766 66.3477 6.72656 66.3477 8.05469V14.5H63.8477ZM82.2461 18.4844C81.7578 18.4844 81.2695 18.4648 80.957 18.4258V16.4336C81.2695 16.4531 81.6797 16.4727 82.0117 16.4727C82.6172 16.4727 83.125 16.4141 83.5547 15.2812L83.7695 14.7148L79.9023 3.89453H82.5391L85 11.9023H85.1172L87.5781 3.89453H90.2148L85.957 15.7891C85.3516 17.4883 84.2383 18.4844 82.2461 18.4844ZM98.5547 10.0469V3.89453H101.035V14.5H98.6328V12.625H98.5156C98.0273 13.7969 96.9141 14.6367 95.332 14.6367C93.2422 14.6367 91.7969 13.1914 91.7773 10.6523V3.89453H94.2773V10.2617C94.2773 11.6094 95.0781 12.4688 96.2891 12.4688C97.3828 12.4688 98.5547 11.668 98.5547 10.0469ZM105.918 8.28906V14.5H103.418V3.89453H105.801V5.69141H105.938C106.426 4.5 107.5 3.75781 109.082 3.75781C111.289 3.75781 112.734 5.20312 112.715 7.74219V14.5H110.234V8.13281C110.234 6.70703 109.473 5.86719 108.164 5.86719C106.836 5.86719 105.918 6.74609 105.918 8.28906ZM119.727 18.6992C116.914 18.6992 115.137 17.4492 114.961 15.457H117.441C117.617 16.375 118.496 16.8242 119.766 16.8242C121.25 16.8242 122.227 16.1797 122.227 14.6172V12.5859H122.109C121.719 13.3672 120.879 14.3438 119.043 14.3438C116.602 14.3438 114.668 12.5664 114.668 9.10938C114.668 5.61328 116.602 3.75781 119.062 3.75781C120.938 3.75781 121.719 4.87109 122.109 5.63281H122.227V3.89453H124.688V14.6758C124.688 17.3906 122.598 18.6992 119.727 18.6992ZM119.727 12.3906C121.328 12.3906 122.246 11.1797 122.246 9.14844C122.246 7.13672 121.348 5.78906 119.727 5.78906C118.066 5.78906 117.207 7.21484 117.207 9.14844C117.207 11.1016 118.086 12.3906 119.727 12.3906ZM128.613 14.6562C127.773 14.6562 127.09 13.9727 127.09 13.1328C127.09 12.3125 127.773 11.6289 128.613 11.6289C129.414 11.6289 130.117 12.3125 130.117 13.1328C130.117 13.9727 129.414 14.6562 128.613 14.6562ZM132.52 14.5V0.359375H135.02V8.15234H135.195L139.004 3.89453H141.914L137.812 8.46484L142.168 14.5H139.199L135.938 9.94922L135.02 10.9258V14.5H132.52ZM143.398 14.5V3.89453H145.82V5.65234H145.938C146.309 4.44141 147.344 3.73828 148.555 3.73828C148.828 3.73828 149.219 3.75781 149.453 3.79688V6.10156C149.238 6.02344 148.711 5.94531 148.301 5.94531C146.914 5.94531 145.898 6.90234 145.898 8.25V14.5H143.398Z" fill="#B7B7B7"/>
</svg>
